<?xml version="1.0" encoding="utf-8"?>
<!-- Generator: Adobe Illustrator 18.1.1, SVG Export Plug-In . SVG Version: 6.00 Build 0)  -->
<svg version="1.1" id="Layer_1" xmlns="http://www.w3.org/2000/svg" xmlns:xlink="http://www.w3.org/1999/xlink" x="0px" y="0px"
	 viewBox="0 0 147.8 19" enable-background="new 0 0 147.8 19" xml:space="preserve">
<g>
	<path fill="#FFFFFF" d="M3.8,19C1.6,19,0,17.8,0,15.2v-2.6h2.4v2.3c0,1.3,0.7,1.8,1.3,1.8c0.7,0,1.3-0.5,1.3-1.8v-1.5
		c0-2-5.1-3.7-5.1-7.2V3.8C0,1.1,1.8,0,3.8,0c2,0,3.8,1.1,3.8,3.8v2.9H5.1V4.2c0-1.3-0.7-1.8-1.3-1.8c-0.7,0-1.3,0.5-1.3,1.8v1.5
		c0,2.8,5.1,3.7,5.1,7.2v2.3C7.6,17.8,6,19,3.8,19z"/>
	<path fill="#FFFFFF" d="M14.4,19c-2,0-3.8-1.1-3.8-3.8V3.8c0-2.7,1.8-3.8,3.8-3.8c2.4,0,3.8,1.1,3.8,3.8v11.3
		C18.2,17.9,16.4,19,14.4,19z M15.7,4.2c0-1.3-0.7-1.8-1.3-1.8c-0.7,0-1.3,0.5-1.3,1.8v10.7c0,1.3,0.7,1.8,1.3,1.8
		c0.7,0,1.3-0.5,1.3-1.8V4.2z"/>
	<path fill="#FFFFFF" d="M27,18.7l-3-12l-0.4-1.3l0.2,1.3v12h-2.4V0.3h3.1l3.1,12.6l0.5,1.3l-0.3-1.3V0.3h2.4v18.4H27z"/>
	<path fill="#FFFFFF" d="M42.3,19c-2,0-3.8-1.1-3.8-3.8V3.8c0-2.7,1.8-3.8,3.8-3.8c2.4,0,3.8,1.1,3.8,3.8v11.3
		C46.1,17.9,44.4,19,42.3,19z M43.7,4.2c0-1.3-0.7-1.8-1.3-1.8c-0.7,0-1.3,0.5-1.3,1.8v10.7c0,1.3,0.7,1.8,1.3,1.8
		c0.7,0,1.3-0.5,1.3-1.8V4.2z"/>
	<path fill="#FFFFFF" d="M51.8,2.8v5.4H55v2.4h-3.2v8h-2.4V0.3h5.9v2.4H51.8z"/>
	<path fill="#FFFFFF" d="M66.6,2.8v15.9h-2.4V2.8h-2.3V0.3h7v2.4H66.6z"/>
	<path fill="#FFFFFF" d="M76.6,18.7v-8.2h-2.7v8.2h-2.4V0.3h2.4v7.8h2.7V0.3H79v18.4H76.6z"/>
	<path fill="#FFFFFF" d="M82.4,18.7V0.3h5.9v2.4h-3.4v5.4h3.2v2.4h-3.2v5.6h3.4v2.4H82.4z"/>
	<path fill="#FFFFFF" d="M99.7,19c-2,0-3.8-1.1-3.8-3.8V3.8c0-2.7,1.8-3.8,3.8-3.8c2,0,3.8,1.1,3.8,3.8v2.9H101V4.2
		c0-1.3-0.7-1.8-1.3-1.8c-0.7,0-1.3,0.5-1.3,1.8v10.7c0,1.3,0.7,1.8,1.3,1.8c0.7,0,1.3-0.5,1.3-1.8v-2.3h2.4v2.6
		C103.5,17.9,101.7,19,99.7,19z"/>
	<path fill="#FFFFFF" d="M110.3,19c-2,0-3.8-1.1-3.8-3.8V3.8c0-2.7,1.8-3.8,3.8-3.8c2.4,0,3.8,1.1,3.8,3.8v11.3
		C114.1,17.9,112.3,19,110.3,19z M111.6,4.2c0-1.3-0.7-1.8-1.3-1.8c-0.7,0-1.3,0.5-1.3,1.8v10.7c0,1.3,0.7,1.8,1.3,1.8
		c0.7,0,1.3-0.5,1.3-1.8V4.2z"/>
	<path fill="#FFFFFF" d="M122.9,18.7l-3-12l-0.4-1.3l0.2,1.3v12h-2.4V0.3h3.1l3.1,12.6l0.5,1.3l-0.3-1.3V0.3h2.4v18.4H122.9z"/>
	<path fill="#FFFFFF" d="M133.4,19c-2.3,0-4-1-4-3.8V3.8c0-3,1.8-3.8,4-3.8s3.8,0.8,3.8,3.8v2.9h-2.4V4.2c0-1.3-0.7-1.8-1.3-1.8
		c-0.7,0-1.6,0.5-1.6,1.8v10.7c0,1.3,0.9,1.8,1.6,1.8c0.7,0,1.3-0.5,1.3-1.8v-3.3h-1.6V9.2h4.1v6C137.2,18.2,135.7,19,133.4,19z"/>
	<path fill="#FFFFFF" d="M144,19c-2,0-3.8-1.1-3.8-3.8V3.8c0-2.7,1.8-3.8,3.8-3.8c2.4,0,3.8,1.1,3.8,3.8v11.3
		C147.8,17.9,146.1,19,144,19z M145.4,4.2c0-1.3-0.7-1.8-1.3-1.8c-0.7,0-1.3,0.5-1.3,1.8v10.7c0,1.3,0.7,1.8,1.3,1.8
		c0.7,0,1.3-0.5,1.3-1.8V4.2z"/>
</g>
</svg>
